<svg xmlns="http://www.w3.org/2000/svg" xmlns:xlink="http://www.w3.org/1999/xlink" width="779" height="756.147" viewBox="0 0 779 756.147">
  <defs>
    <linearGradient id="linear-gradient" x1="0.5" y1="1.108" x2="0.5" y2="-0.424" gradientUnits="objectBoundingBox">
      <stop offset="0" stop-color="red"/>
      <stop offset="1" stop-color="#ff0"/>
    </linearGradient>
  </defs>
  <g id="Group_81613" data-name="Group 81613" transform="translate(1499 -98.853)">
    <g id="Group_81612" data-name="Group 81612" transform="translate(-1366 98.853)">
      <g id="Group_81586" data-name="Group 81586" transform="translate(0 0)">
        <path id="Path_27764" data-name="Path 27764" d="M513.9,193.786Q457.857,208.76,402.8,223.46c-4.078-9.763-7.305-19.06-11.7-27.793-27.629-54.818-88.585-86.593-149.4-78.176-61.286,8.486-111.847,56.287-122.86,117.065-6.633,36.582.288,71.035,19.609,102.783a19.893,19.893,0,0,1,2.8,14.8c-3.584,21.133-6.88,42.335-10.423,64.4,2.719-.851,4.6-1.332,6.413-2.019,18.154-6.921,36.266-13.979,54.5-20.68,2.678-.975,6.44-1.291,8.926-.178,80.73,36.156,174.327-5.863,200.074-90.3.33-1.071.783-2.1,1.51-4.065q55.676,14.851,111.064,29.633c-21.257,96.22-116.872,192.714-251.912,194C126.993,524.258,10.725,417.273.728,283.373-9.406,147.578,87.13,23.5,217.391,3.352,362.88-19.141,483.145,74.51,513.9,193.786Z" transform="translate(0.002 0.003)" fill="url(#linear-gradient)"/>
      </g>
      <g id="noun_Speaker_3408330" transform="translate(174.742 190.356)">
        <g id="Group_81578" data-name="Group 81578" transform="translate(0 0)">
          <path id="Path_27779" data-name="Path 27779" d="M97.909,14.109,49.068,51.78h-37.1A9.373,9.373,0,0,0,2.5,61.245V106.3a9.373,9.373,0,0,0,9.465,9.465h37.1l48.84,37.482a9.546,9.546,0,0,0,15.334-7.572V21.681A9.6,9.6,0,0,0,97.909,14.109Z" transform="translate(-2.5 -12.182)" fill="url(#linear-gradient)"/>
          <path id="Path_27780" data-name="Path 27780" d="M83.709,37.772a8.406,8.406,0,0,0-13.63,9.844,28.022,28.022,0,0,1,5.3,16.469,28.454,28.454,0,0,1-5.3,16.469,8.434,8.434,0,0,0,1.893,11.737,7.955,7.955,0,0,0,4.922,1.514,7.819,7.819,0,0,0,6.815-3.6,44.434,44.434,0,0,0,8.519-26.124A45.44,45.44,0,0,0,83.709,37.772Z" transform="translate(56.375 7.505)" fill="url(#linear-gradient)"/>
          <path id="Path_27781" data-name="Path 27781" d="M95.148,25.522a8.471,8.471,0,1,0-13.062,10.79,60.133,60.133,0,0,1,.189,76.478,8.441,8.441,0,0,0,1.136,11.926,8.588,8.588,0,0,0,11.926-1.136,76.133,76.133,0,0,0-.189-98.059Z" transform="translate(66.895 -2.962)" fill="url(#linear-gradient)"/>
        </g>
      </g>
    </g>
    <text id="Convoice" transform="translate(-1499 816)" fill="#333" font-size="184" font-family="ProximaNova-Bold, Proxima Nova" font-weight="700"><tspan x="0" y="0">Convoice</tspan></text>
  </g>
</svg>
